<svg xmlns="http://www.w3.org/2000/svg" viewBox="13 19.2974 728.7496 150">
  <g transform="matrix(0.1000000014901161, 0, 0, -0.1000000014901161, 0, 167.99999999999994)" fill="#f8fbf9" stroke="none">
    <path d="M704 1470 c-111 -44 -175 -133 -182 -252 l-4 -68 83 -38 c46 -21 110 -49 141 -62 l57 -23 133 58 c73 31 139 65 146 74 27 32 -10 166 -62 227 -77 90 -208 125 -312 84z" fill="#f8fbf9"/>
    <!-- <path d="M5293 1275 c-57 -25 -71 -92 -28 -139 63 -68 176 4 140 90 -22 53 -62 71 -112 49z"/> -->
    <path d="M2020 859 l0 -380 218 3 c233 3 233 3 300 62 82 72 89 216 15 312 l-34 46 15 39 c22 56 20 116 -8 174 -52 110 -91 125 -326 125 l-180 0 0 -381z m344 220 c30 -24 35 -72 10 -107 -14 -20 -23 -22 -110 -22 l-94 0 0 68 c0 38 3 72 7 75 3 4 41 7 83 7 63 0 82 -4 104 -21z m40 -290 c53 -24 58 -110 9 -149 -22 -17 -41 -20 -134 -20 l-109 0 0 90 0 90 105 0 c57 0 115 -5 129 -11z" fill="#f8fbf9"/>
    <path d="M3630 860 l0 -380 75 0 74 0 3 157 3 158 123 -158 124 -157 79 0 c43 0 79 2 79 5 0 3 -50 70 -112 148 -61 78 -115 147 -120 154 -7 9 21 50 92 135 l101 123 -72 3 c-40 2 -78 1 -85 -2 -7 -3 -58 -60 -113 -126 l-101 -122 0 221 0 221 -75 0 -75 0 0 -380z" fill="#f8fbf9"/>
    <!-- <path d="M4410 860 l0 -380 69 0 69 0 3 158 c4 172 13 202 71 245 39 29 113 28 160 -1 59 -37 68 -68 68 -246 l0 -156 75 0 75 0 0 134 c0 198 -21 278 -91 352 -70 73 -198 103 -295 70 -26 -9 -51 -16 -56 -16 -4 0 -8 50 -8 110 l0 110 -70 0 -70 0 0 -380z"/> -->
    <!-- <path d="M6440 860 l0 -380 75 0 75 0 0 380 0 380 -75 0 -75 0 0 -380z"/> -->
    <path d="M142 1168 c-9 -9 -12 -114 -12 -411 0 -357 2 -402 17 -428 18 -31 60 -51 410 -198 232 -98 247 -100 385 -41 51 21 183 76 292 122 152 63 204 90 220 111 20 28 21 40 24 425 3 452 4 445 -65 425 -21 -6 -81 -29 -133 -51 -52 -22 -183 -77 -290 -121 l-195 -82 -80 34 c-318 137 -534 227 -547 227 -8 0 -19 -5 -26 -12z" fill="#f8fbf9"/>
    <path d="M3014 1038 c-108 -36 -196 -163 -196 -280 0 -113 57 -205 162 -260 37 -19 60 -23 135 -23 86 0 93 2 143 34 199 127 184 403 -28 513 -51 26 -163 34 -216 16z m173 -154 c49 -32 78 -110 62 -169 -12 -43 -68 -92 -115 -101 -138 -26 -232 147 -133 245 50 51 130 61 186 25z" fill="#f8fbf9"/>
    <!-- <path d="M5257 1043 c-4 -3 -7 -131 -7 -282 0 -249 -2 -280 -18 -311 -17 -32 -57 -60 -104 -74 -15 -4 -18 -17 -18 -76 0 -81 4 -83 93 -50 73 27 130 79 164 148 l28 57 3 298 3 297 -69 0 c-38 0 -72 -3 -75 -7z"/> -->
    <!-- <path d="M5814 1034 c-126 -46 -210 -197 -185 -331 16 -84 78 -164 164 -210 47 -26 198 -25 252 2 47 23 106 82 128 127 l16 33 -79 3 c-68 2 -84 0 -108 -18 -62 -46 -158 -32 -201 29 l-22 31 209 0 c231 0 222 -3 222 64 0 98 -69 205 -164 253 -64 33 -170 40 -232 17z m177 -150 c23 -11 59 -54 59 -69 0 -3 -61 -5 -135 -5 -74 0 -135 3 -135 6 0 15 22 43 47 59 53 35 107 38 164 9z"/> -->
    <!-- <path d="M7042 1035 c-89 -27 -154 -92 -187 -184 -12 -35 -15 -95 -15 -307 l0 -264 70 0 70 0 0 115 0 114 43 -19 c50 -23 144 -26 200 -6 95 34 169 121 189 221 42 210 -164 394 -370 330z m141 -139 c43 -18 85 -68 93 -113 23 -120 -125 -218 -227 -150 -96 64 -90 203 11 255 51 25 78 27 123 8z"/> -->
  </g>
    <g transform="matrix(0.1000000014901161, 0, 0, -0.1000000014901161, 0, 167.99999999999994)" fill="#f8fbf9" stroke="none">
    <!-- <path d="M704 1470 c-111 -44 -175 -133 -182 -252 l-4 -68 83 -38 c46 -21 110 -49 141 -62 l57 -23 133 58 c73 31 139 65 146 74 27 32 -10 166 -62 227 -77 90 -208 125 -312 84z"/> -->
    <path d="M5293 1275 c-57 -25 -71 -92 -28 -139 63 -68 176 4 140 90 -22 53 -62 71 -112 49z" fill="#f8fbf9"/>
    <!-- <path d="M2020 859 l0 -380 218 3 c233 3 233 3 300 62 82 72 89 216 15 312 l-34 46 15 39 c22 56 20 116 -8 174 -52 110 -91 125 -326 125 l-180 0 0 -381z m344 220 c30 -24 35 -72 10 -107 -14 -20 -23 -22 -110 -22 l-94 0 0 68 c0 38 3 72 7 75 3 4 41 7 83 7 63 0 82 -4 104 -21z m40 -290 c53 -24 58 -110 9 -149 -22 -17 -41 -20 -134 -20 l-109 0 0 90 0 90 105 0 c57 0 115 -5 129 -11z"/> -->
    <!-- <path d="M3630 860 l0 -380 75 0 74 0 3 157 3 158 123 -158 124 -157 79 0 c43 0 79 2 79 5 0 3 -50 70 -112 148 -61 78 -115 147 -120 154 -7 9 21 50 92 135 l101 123 -72 3 c-40 2 -78 1 -85 -2 -7 -3 -58 -60 -113 -126 l-101 -122 0 221 0 221 -75 0 -75 0 0 -380z"/> -->
    <path d="M4410 860 l0 -380 69 0 69 0 3 158 c4 172 13 202 71 245 39 29 113 28 160 -1 59 -37 68 -68 68 -246 l0 -156 75 0 75 0 0 134 c0 198 -21 278 -91 352 -70 73 -198 103 -295 70 -26 -9 -51 -16 -56 -16 -4 0 -8 50 -8 110 l0 110 -70 0 -70 0 0 -380z" fill="#f8fbf9"/>
    <path d="M6440 860 l0 -380 75 0 75 0 0 380 0 380 -75 0 -75 0 0 -380z" fill="#f8fbf9"/>
    <!-- <path d="M142 1168 c-9 -9 -12 -114 -12 -411 0 -357 2 -402 17 -428 18 -31 60 -51 410 -198 232 -98 247 -100 385 -41 51 21 183 76 292 122 152 63 204 90 220 111 20 28 21 40 24 425 3 452 4 445 -65 425 -21 -6 -81 -29 -133 -51 -52 -22 -183 -77 -290 -121 l-195 -82 -80 34 c-318 137 -534 227 -547 227 -8 0 -19 -5 -26 -12z"/> -->
    <!-- <path d="M3014 1038 c-108 -36 -196 -163 -196 -280 0 -113 57 -205 162 -260 37 -19 60 -23 135 -23 86 0 93 2 143 34 199 127 184 403 -28 513 -51 26 -163 34 -216 16z m173 -154 c49 -32 78 -110 62 -169 -12 -43 -68 -92 -115 -101 -138 -26 -232 147 -133 245 50 51 130 61 186 25z"/> -->
    <path d="M5257 1043 c-4 -3 -7 -131 -7 -282 0 -249 -2 -280 -18 -311 -17 -32 -57 -60 -104 -74 -15 -4 -18 -17 -18 -76 0 -81 4 -83 93 -50 73 27 130 79 164 148 l28 57 3 298 3 297 -69 0 c-38 0 -72 -3 -75 -7z" fill="#f8fbf9"/>
    <path d="M5814 1034 c-126 -46 -210 -197 -185 -331 16 -84 78 -164 164 -210 47 -26 198 -25 252 2 47 23 106 82 128 127 l16 33 -79 3 c-68 2 -84 0 -108 -18 -62 -46 -158 -32 -201 29 l-22 31 209 0 c231 0 222 -3 222 64 0 98 -69 205 -164 253 -64 33 -170 40 -232 17z m177 -150 c23 -11 59 -54 59 -69 0 -3 -61 -5 -135 -5 -74 0 -135 3 -135 6 0 15 22 43 47 59 53 35 107 38 164 9z" fill="#f8fbf9"/>
    <path d="M7042 1035 c-89 -27 -154 -92 -187 -184 -12 -35 -15 -95 -15 -307 l0 -264 70 0 70 0 0 115 0 114 43 -19 c50 -23 144 -26 200 -6 95 34 169 121 189 221 42 210 -164 394 -370 330z m141 -139 c43 -18 85 -68 93 -113 23 -120 -125 -218 -227 -150 -96 64 -90 203 11 255 51 25 78 27 123 8z" fill="#f8fbf9"/>
  </g>
</svg>