<svg xmlns="http://www.w3.org/2000/svg" viewBox="0 0 170 168">
  <g transform="matrix(0.10000000149011613, 0, 0, -0.10000000149011613, 1.4210854715202004e-14, 168.00000000000003)" fill="#27ae97" stroke="none">
    <path d="M744 1470 c-111 -44 -175 -133 -182 -252 l-4 -68 83 -38 c46 -21 110 -49 141 -62 l57 -23 133 58 c73 31 139 65 146 74 27 32 -10 166 -62 227 -77 90 -208 125 -312 84z" fill="#27ae97"/>
    <path d="M182 1168 c-9 -9 -12 -114 -12 -411 0 -357 2 -402 17 -428 18 -31 60 -51 410 -198 232 -98 247 -100 385 -41 51 21 183 76 292 122 152 63 204 90 220 111 20 28 21 40 24 425 3 452 4 445 -65 425 -21 -6 -81 -29 -133 -51 -52 -22 -183 -77 -290 -121 l-195 -82 -80 34 c-318 137 -534 227 -547 227 -8 0 -19 -5 -26 -12z" fill="#27ae97"/>
  </g>
</svg>